<?xml version="1.0" encoding="utf-8"?>
<!-- Generator: Adobe Illustrator 16.0.1, SVG Export Plug-In . SVG Version: 6.00 Build 0)  -->
<!DOCTYPE svg PUBLIC "-//W3C//DTD SVG 1.1//EN" "http://www.w3.org/Graphics/SVG/1.1/DTD/svg11.dtd" [
	<!ENTITY ns_extend "http://ns.adobe.com/Extensibility/1.0/">
	<!ENTITY ns_ai "http://ns.adobe.com/AdobeIllustrator/10.0/">
	<!ENTITY ns_graphs "http://ns.adobe.com/Graphs/1.0/">
	<!ENTITY ns_vars "http://ns.adobe.com/Variables/1.0/">
	<!ENTITY ns_imrep "http://ns.adobe.com/ImageReplacement/1.0/">
	<!ENTITY ns_sfw "http://ns.adobe.com/SaveForWeb/1.0/">
	<!ENTITY ns_custom "http://ns.adobe.com/GenericCustomNamespace/1.0/">
	<!ENTITY ns_adobe_xpath "http://ns.adobe.com/XPath/1.0/">
]>
<svg version="1.1" id="Layer_1" xmlns:x="&ns_extend;" xmlns:i="&ns_ai;" xmlns:graph="&ns_graphs;"
	 xmlns="http://www.w3.org/2000/svg" xmlns:xlink="http://www.w3.org/1999/xlink" x="0px" y="0px" width="25px" height="38px"
	 viewBox="0 0 25 38" enable-background="new 0 0 25 38" xml:space="preserve">
<metadata>
	<sfw  xmlns="&ns_sfw;">
		<slices></slices>
		<sliceSourceBounds  height="38" width="24.999" y="53.499" x="59" bottomLeftOrigin="true"></sliceSourceBounds>
	</sfw>
</metadata>
<g id="rays">
</g>
<g id="sun">
</g>
<path opacity="0.1" enable-background="new    " d="M22.719,19.631c-0.689,2.74-2.332,10.502-4.957,8.842
	c-2.855-1.809-2.486-1.434-4.931-1.35c-2.779,0.096-1.354-0.703-4.679,1.287c-3.149,1.889-5.532-6.814-5.658-9.522
	c-1.134-0.341,0.891,6.864,0.891,6.864s0.688,1.742,1.019,3.221c0.351,1.57,0.848,2.924,1.767,4.24
	c0.57,0.812,1.208,1.572,1.99,2.178c1.098,0.855,2.458,1.096,3.803,1.127c1.521,0.037,3.091-0.059,4.437-0.863
	c1.287-0.771,2.277-1.989,3.113-3.233c1.541-2.299,0.94-3.553,2.031-6.164C21.93,25.803,23.734,19.37,22.719,19.631z"/>
<path d="M15.057,30.592c0,0-1.714,0.646-2.358,0.646c-0.646,0-2.479-0.658-2.479-0.658c-0.352,0-0.533,0.24-0.398,0.533
	c0.134,0.293,2.231,0.949,2.878,0.949c0.642,0,2.7-0.65,2.808-0.941C15.611,30.83,15.412,30.594,15.057,30.592z"/>
<ellipse cx="7.805" cy="20.455" rx="0.801" ry="0.824"/>
<ellipse cx="17.409" cy="20.455" rx="0.801" ry="0.824"/>
<path d="M24.628,17.731c-0.108-0.087-0.187-0.271-0.198-0.416c-0.258-3.359-0.096-6.677-1.369-9.856
	c-1.597-3.985-5.174-5.891-9.207-7.229c-3.227-1.072-4.367,1.873-9.152,3.43C2.877,4.249,2.172,6.282,1.533,8.136
	c-0.956,2.785-0.737,5.782-0.964,8.682c-0.011,0.146-0.086,0.329-0.196,0.417c-0.495,0.399-0.385,0.889-0.293,1.422
	c0.265,1.485,0.473,2.983,0.733,4.468c0.061,0.324,0.17,0.584,0.303,0.818c0.16,0.506,0.461,0.922,0.807,1.326
	c1.083,1.27,1.453,2.938,1.812,4.539c0.384,1.705,0.918,3.176,1.915,4.602c0.618,0.881,1.312,1.703,2.157,2.363
	c1.189,0.93,2.666,1.186,4.125,1.221c1.647,0.037,3.353-0.064,4.81-0.938c1.396-0.836,2.469-2.156,3.375-3.507
	c1.672-2.491,1.173-5.938,3.17-8.28c0.422-0.49,0.784-0.986,0.901-1.646c0.262-1.486,0.47-2.982,0.731-4.471
	C25.012,18.62,25.123,18.13,24.628,17.731z M5.859,9.45c3.324-1.992,4.351,0.276,7.129,0.177c3.912-0.14,4.186-1.986,7.041-0.177
	c2.146,1.359,2.05,5.889,2.377,8.648l-1.905,0.193c-0.178-0.032-0.377-0.056-0.61-0.064c-0.344-0.012-0.699-0.017-1.06-0.017
	c-0.89,0-3.841,0.043-5.052,0.579l-1.174,0.148l-1.174-0.148c-1.209-0.536-4.162-0.579-5.053-0.579
	c-0.357,0-0.716,0.005-1.061,0.017c-0.233,0.008-0.429,0.032-0.61,0.064L2.79,18.097C3.449,15.713,3.24,11.022,5.859,9.45z
	 M21.007,21.125l-0.044,0.469c-0.072,0.797-0.582,1.197-0.98,1.295c-0.387,0.074-0.953,0.109-1.685,0.109c-0.002,0-0.002,0-0.002,0
	c-1.021,0-2.142-0.072-2.815-0.115c-0.17-0.014-0.385-0.188-0.61-0.494c-0.57-0.777-0.981-2.102-1.06-2.643l0.019-0.238
	c0.026-0.022,0.075-0.057,0.163-0.099c0.693-0.328,2.593-0.541,4.84-0.541c0.352,0,0.707,0.007,1.037,0.017
	c1.221,0.046,1.242,0.424,1.258,0.667C21.135,19.709,21.064,20.492,21.007,21.125z M11.398,19.746
	c-0.076,0.541-0.488,1.865-1.056,2.643c-0.226,0.307-0.44,0.48-0.612,0.494c-0.678,0.043-1.795,0.115-2.816,0.115l0,0
	c-0.733,0-1.301-0.035-1.686-0.109c-0.401-0.098-0.912-0.498-0.983-1.295l-0.042-0.469c-0.06-0.633-0.133-1.416-0.119-1.572
	c0.014-0.244,0.034-0.621,1.255-0.667c0.336-0.01,0.685-0.017,1.039-0.017c2.248,0,4.149,0.213,4.842,0.541
	c0.088,0.042,0.135,0.076,0.16,0.099L11.398,19.746z M23.266,23.266c-0.107,0.607-0.442,1.064-0.828,1.519
	c-1.845,2.159-1.385,5.338-2.924,7.637c-0.837,1.244-1.826,2.463-3.115,3.233c-1.344,0.806-2.914,0.9-4.436,0.863
	c-1.345-0.031-2.705-0.271-3.803-1.127c-0.78-0.604-1.419-1.365-1.99-2.178c-0.919-1.316-1.416-2.67-1.767-4.24
	c-0.331-1.479-0.675-3.02-1.671-4.188c-0.321-0.373-0.595-0.759-0.747-1.22c-0.122-0.221-0.223-0.459-0.274-0.758
	c-0.241-1.369-0.456-1.566-0.522-2.957c-0.024-0.494,0.525-0.056,1.068-0.629c0.1-0.105,0.184-0.241,0.263-0.392
	c0.04,0.008,0.085,0.015,0.123,0.023c0.504,0.084,0.61,0.105,0.871,0.255c-0.04,0.12-0.055,0.239-0.064,0.349
	c-0.019,0.246,0.033,0.816,0.118,1.732l0.04,0.467c0.085,0.941,0.671,1.683,1.489,1.878c0.443,0.086,1.036,0.127,1.818,0.127l0,0
	c1.041,0,2.173-0.074,2.85-0.117c0.508-0.035,0.991-0.479,1.443-1.328c0.201-0.373,0.412-0.885,0.572-1.389H11.8
	c0-0.002,0.009-0.127,0.144-0.234c0.127-0.104,0.34-0.166,0.606-0.182c0.013,0,0.032-0.005,0.046-0.005
	c0.023,0.003,0.047,0.005,0.065,0.005c0.271,0.016,0.479,0.077,0.608,0.182c0.135,0.107,0.143,0.232,0.143,0.234h0.02
	c0.158,0.504,0.373,1.016,0.57,1.389c0.455,0.849,0.938,1.293,1.443,1.328c0.678,0.043,1.809,0.117,2.851,0.117c0,0,0,0,0.002,0
	c0.781,0,1.372-0.041,1.817-0.127c0.816-0.195,1.4-0.937,1.486-1.878l0.043-0.467c0.086-0.916,0.137-1.486,0.114-1.732
	c-0.006-0.11-0.024-0.229-0.063-0.349c0.254-0.145,0.361-0.168,0.826-0.248c0.055,0.293,0.117,0.561,0.196,0.773
	c0.188,0.486,0.942,0.055,1.054,0.518C23.885,20.613,23.507,21.896,23.266,23.266z"/>
<g>
	<path d="M12.641,27.48c-0.27,0-0.502-0.127-0.709-0.24c-0.178-0.096-0.345-0.186-0.488-0.172c-0.279,0.022-1.207,0.067-1.436-0.338
		c-0.061-0.107-0.099-0.289,0.071-0.535l0.302,0.219c-0.05,0.074-0.059,0.117-0.051,0.129c0.061,0.107,0.535,0.195,1.083,0.148
		c0.249-0.027,0.476,0.098,0.69,0.217c0.186,0.1,0.36,0.195,0.537,0.195c0.18,0,0.354-0.097,0.537-0.195
		c0.215-0.115,0.438-0.242,0.692-0.217c0.501,0.041,1.015-0.027,1.083-0.148c0.006-0.012-0.001-0.055-0.051-0.129l0.3-0.219
		c0.169,0.246,0.134,0.428,0.069,0.535c-0.225,0.408-1.15,0.36-1.433,0.338c-0.151-0.014-0.312,0.076-0.487,0.172
		C13.145,27.354,12.91,27.48,12.641,27.48z"/>
</g>
</svg>
